# xmcd
#
# Track frame offsets:
#	150
#	18957
#	37480
#	53439
#	68783
#	88250
#	105122
#	120629
#	139640
#	156388
#	174180
#	191409
#	207080
#	223408
#	237619
#	258288
#	274586
#	291143
#
# Disc length: 4165 seconds
#
# Revision: 1
# Processed by: cddbd v1.5.2PL0 Copyright (c) Steve Scherf et al.
# Submitted via: EasyCDDAExtractor 10.0.4.1
#
DISCID=05104312
DTITLE=Various Artist - Unbelievable 90's CD2
DYEAR=2006
DGENRE=Pop
TTITLE0=Soul II Soul - Joy
TTITLE1=Shara Nelson - Uptight
TTITLE2=Louise - Naked
TTITLE3=Charles and Eddie - Would I Lie To You
TTITLE4=Eternal - Power Of A Woman
TTITLE5=Shaggy Feat. Rayvon - In The Summertime
TTITLE6=Arrested Development - Mr Wendal
TTITLE7=MC Hammer - U Can't Touch This
TTITLE8=Vanilla Ice - Ice Ice Baby
TTITLE9=Maxi Priest - That Girl
TTITLE10=Pato Banton and The Raggae Revolution With Ali and Robin Campbell - Baby 
TTITLE10=Come Back
TTITLE11=Atomic Kitten - Right Now
TTITLE12=Dana Dawson - 3 Is Family
TTITLE13=Geri Halliwell - Mi Chico Latino
TTITLE14=Tasmin Archer - Sleeping Satellite
TTITLE15=Wilson Phillips - Hold On
TTITLE16=Chesney Hawks - The One And Only
TTITLE17=Sinead O' Connor - Nothing Compares To You
EXTD=YEAR: 2006
EXTT0=
EXTT1=
EXTT2=
EXTT3=
EXTT4=
EXTT5=
EXTT6=
EXTT7=
EXTT8=
EXTT9=
EXTT10=
EXTT11=
EXTT12=
EXTT13=
EXTT14=
EXTT15=
EXTT16=
EXTT17=
PLAYORDER=
